<?xml version="1.0" standalone="no"?>
<!DOCTYPE svg PUBLIC "-//W3C//DTD SVG 20010904//EN"
 "http://www.w3.org/TR/2001/REC-SVG-20010904/DTD/svg10.dtd">
<svg version="1.0" xmlns="http://www.w3.org/2000/svg"
 width="236.000000pt" height="712.000000pt" viewBox="0 0 236.000000 712.000000"
 preserveAspectRatio="xMidYMid meet">
<metadata>
Created by potrace 1.15, written by Peter Selinger 2001-2017
</metadata>
<g transform="translate(0.000000,712.000000) scale(0.100000,-0.100000)"
fill="#000000" stroke="none">
<path d="M32 5673 l3 -1418 1148 -3 1147 -2 0 1420 0 1420 -1150 0 -1150 0 2
-1417z m653 530 c3 -21 10 -51 14 -68 l9 -30 1 30 c1 17 4 47 7 68 6 30 11 37
30 37 17 0 25 -7 28 -22 2 -13 9 -43 13 -68 l10 -45 7 68 c8 62 10 67 32 67
29 0 29 6 3 -162 -20 -131 -23 -138 -44 -138 -20 0 -24 6 -30 53 -11 92 -18
97 -29 22 -10 -61 -14 -70 -33 -73 -13 -2 -23 0 -23 4 0 9 -39 244 -45 272 -5
18 -1 22 19 22 21 0 26 -6 31 -37z m289 10 c3 -16 12 -71 21 -123 9 -52 18
-107 21 -122 5 -25 3 -28 -19 -28 -20 0 -26 6 -31 35 -6 28 -11 35 -31 35 -19
0 -24 -6 -27 -32 -2 -25 -8 -34 -25 -36 -28 -4 -28 -8 -1 161 l22 137 32 0
c27 0 33 -4 38 -27z m101 -15 c15 -53 21 -54 35 -3 10 37 17 45 36 45 30 0 30
0 -1 -90 -17 -50 -25 -95 -25 -142 0 -66 -1 -68 -25 -68 -24 0 -25 2 -25 63 0
44 -9 90 -30 151 l-29 87 27 -3 c21 -2 29 -11 37 -40z m237 25 c10 -9 18 -22
18 -30 0 -22 -30 -27 -44 -8 -17 23 -46 13 -46 -15 0 -12 18 -40 41 -63 23
-23 45 -52 50 -65 29 -75 -60 -134 -116 -77 -31 30 -33 65 -5 65 11 0 20 -4
20 -9 0 -5 7 -17 16 -26 12 -12 19 -13 30 -4 24 20 16 40 -36 95 -54 57 -63
91 -34 132 19 27 78 30 106 5z m258 -3 c0 -15 -7 -20 -25 -20 l-25 0 0 -131
c0 -130 0 -130 -22 -127 -22 3 -23 7 -26 131 -2 119 -4 127 -22 127 -13 0 -20
7 -20 20 0 18 7 20 70 20 63 0 70 -2 70 -20z m153 3 c19 -22 20 -27 18 -145
-1 -84 -4 -101 -21 -118 -27 -27 -66 -25 -95 5 -23 23 -25 31 -25 130 0 92 3
108 20 125 25 25 81 26 103 3z m-1363 -978 l17 -50 13 53 c13 47 16 52 42 52
l27 0 -29 -81 c-23 -60 -30 -98 -30 -150 0 -67 -1 -69 -25 -69 -24 0 -25 2
-25 63 0 56 -18 130 -55 220 -7 16 -3 18 20 15 24 -3 31 -11 45 -53z m235 30
c23 -22 25 -31 25 -123 0 -85 -3 -103 -21 -126 -26 -33 -77 -36 -105 -5 -16
18 -19 37 -19 131 0 103 1 111 24 129 32 26 67 24 96 -6z m105 -93 c0 -118 7
-146 36 -135 11 4 14 33 14 129 l0 124 25 0 25 0 0 -130 c0 -117 -2 -132 -20
-150 -24 -24 -67 -26 -98 -4 -21 14 -22 22 -22 150 0 127 1 134 20 134 19 0
20 -7 20 -118z m258 102 c18 -12 22 -25 22 -70 0 -31 -4 -63 -10 -73 -6 -12
-4 -36 5 -72 19 -70 19 -69 -9 -69 -22 0 -26 7 -37 55 -7 33 -17 55 -26 55 -9
0 -13 -16 -13 -55 0 -52 -1 -55 -25 -55 l-25 0 0 150 0 150 48 0 c27 0 57 -7
70 -16z m240 0 c21 -14 22 -23 22 -131 0 -132 -9 -153 -66 -153 -60 0 -74 28
-74 146 0 87 3 105 21 128 24 30 63 34 97 10z m145 -71 l25 -88 1 88 c1 86 1
87 26 87 l25 0 0 -151 0 -150 -27 3 c-24 3 -29 12 -54 88 l-27 85 -1 -87 c-1
-87 -1 -88 -26 -88 l-25 0 0 150 0 150 29 0 c27 0 29 -4 54 -87z m167 -43 l0
-130 35 0 c28 0 35 -4 35 -20 0 -18 -7 -20 -60 -20 l-60 0 0 150 0 150 25 0
25 0 0 -130z m260 58 c34 -120 39 -122 39 -20 1 85 2 92 21 92 19 0 20 -7 20
-150 l0 -150 -24 0 c-21 0 -27 10 -52 88 l-29 87 -3 -87 c-3 -80 -5 -88 -22
-88 -19 0 -20 8 -20 150 l0 150 25 0 c22 0 26 -8 45 -72z m250 47 c0 -22 -4
-25 -40 -25 l-40 0 0 -40 c0 -38 2 -40 30 -40 23 0 30 -4 30 -20 0 -16 -7 -20
-30 -20 -29 0 -30 -2 -30 -45 l0 -45 40 0 c33 0 40 -3 40 -20 0 -18 -7 -20
-65 -20 l-65 0 0 150 0 150 65 0 c63 0 65 -1 65 -25z m-1731 -421 c67 -26 93
-123 52 -190 -19 -31 -19 -32 2 -53 31 -30 32 -148 2 -181 -30 -34 -77 -50
-150 -50 l-65 0 0 245 0 245 60 0 c33 0 77 -7 99 -16z m211 -161 c0 -98 3
-188 6 -200 7 -25 29 -36 55 -28 17 6 19 22 21 203 l3 197 38 3 37 3 0 -201
c0 -171 -3 -206 -17 -230 -45 -76 -159 -70 -200 11 -9 17 -13 85 -13 222 l0
197 35 0 35 0 0 -177z m415 153 c23 -23 43 -72 33 -81 -2 -3 -18 -7 -34 -11
-24 -4 -31 -1 -39 18 -12 27 -53 31 -68 7 -18 -28 3 -70 63 -128 33 -32 67
-75 76 -96 43 -103 -50 -203 -150 -161 -38 16 -76 67 -76 104 0 19 5 22 35 22
24 0 35 -5 35 -15 0 -16 35 -55 49 -55 19 0 41 32 41 61 0 22 -13 41 -56 81
-76 73 -94 104 -94 167 0 45 4 57 29 82 25 24 37 29 81 29 41 0 56 -5 75 -24z
m175 -221 l0 -245 -35 0 -35 0 0 245 0 245 35 0 35 0 0 -245z m190 86 l45
-155 3 157 3 157 34 0 35 0 0 -245 0 -245 -38 0 -39 0 -41 129 c-23 70 -42
133 -42 139 0 6 -4 13 -8 16 -5 3 -8 -59 -8 -137 l1 -142 -35 0 -35 0 -3 243
-2 243 42 -3 43 -3 45 -154z m390 119 l0 -40 -65 0 -65 0 0 -65 0 -65 45 0
c45 0 45 0 45 -35 0 -35 0 -35 -45 -35 l-45 0 0 -65 0 -65 65 0 65 0 0 -40 0
-41 -102 3 -103 3 -3 243 -2 242 105 0 105 0 0 -40z m243 16 c24 -23 45 -71
35 -81 -2 -3 -18 -7 -34 -11 -24 -4 -31 -1 -39 18 -6 14 -20 24 -37 26 -22 3
-29 -2 -34 -23 -9 -36 13 -82 57 -117 114 -92 124 -222 21 -265 -32 -13 -42
-14 -77 -2 -43 15 -85 67 -85 105 0 21 5 24 35 24 24 0 35 -5 35 -15 0 -16 35
-55 49 -55 18 0 41 32 41 56 0 17 -22 48 -69 98 -81 85 -101 132 -81 190 17
51 52 76 110 76 36 0 53 -6 73 -24z m291 -3 c25 -25 44 -68 34 -78 -2 -3 -18
-7 -34 -11 -25 -5 -32 -2 -42 20 -13 30 -56 36 -66 10 -16 -41 -5 -67 56 -129
77 -79 87 -98 88 -156 1 -113 -130 -157 -205 -68 -14 18 -25 43 -25 60 0 27 3
29 35 29 26 0 35 -4 35 -17 0 -19 28 -53 43 -53 6 0 19 7 29 17 33 30 22 59
-56 142 -80 86 -96 125 -76 186 17 50 53 75 110 75 38 0 53 -5 74 -27z"/>
<path d="M30 345 l0 -305 1150 0 1150 0 0 305 0 305 -1150 0 -1150 0 0 -305z
m1007 -74 c-5 -23 -3 -28 11 -27 13 1 16 -5 14 -24 l-4 -25 22 28 c17 22 25
25 36 16 11 -9 14 -7 14 9 0 12 5 24 11 28 8 4 9 -1 3 -17 -4 -13 -9 -37 -10
-54 -1 -16 -3 -31 -3 -33 -1 -2 -7 0 -13 5 -17 10 -70 10 -85 0 -16 -11 -26 9
-17 35 6 21 6 22 -17 7 -12 -9 -24 -20 -26 -26 -2 -5 27 -24 64 -42 37 -17 57
-29 43 -25 -14 3 -47 17 -75 30 -37 17 -51 20 -57 11 -5 -8 -8 -8 -8 -1 0 7
-9 14 -20 17 -29 7 -25 25 10 45 16 9 30 20 30 25 0 4 4 7 9 7 5 0 7 -9 4 -20
-3 -11 -1 -20 5 -20 12 0 52 48 52 61 0 15 -44 10 -68 -7 -13 -9 -26 -14 -29
-11 -9 9 51 36 81 37 26 0 28 -2 23 -29z"/>
</g>
</svg>
